<?xml version="1.0" standalone="no"?>
<!DOCTYPE svg PUBLIC "-//W3C//DTD SVG 20010904//EN"
 "http://www.w3.org/TR/2001/REC-SVG-20010904/DTD/svg10.dtd">
<svg version="1.0" xmlns="http://www.w3.org/2000/svg"
 width="512.000000pt" height="512.000000pt" viewBox="0 0 512.000000 512.000000"
 preserveAspectRatio="xMidYMid meet">
<metadata>
Created by potrace 1.11, written by Peter Selinger 2001-2013
</metadata>
<g transform="translate(0.000000,512.000000) scale(0.100000,-0.100000)"
fill="#000000" stroke="none">
<path d="M2500 4022 c-105 -91 -185 -180 -272 -303 -107 -149 -217 -393 -264
-584 -20 -81 -34 -150 -40 -195 -3 -30 -10 -82 -14 -115 -8 -63 -5 -394 3
-431 3 -12 8 -39 11 -60 13 -85 19 -112 38 -184 43 -167 123 -366 196 -485 86
-143 153 -229 261 -335 120 -117 129 -124 155 -112 36 16 173 150 242 236 192
239 319 529 379 866 26 148 26 465 0 620 -10 58 -18 116 -19 130 0 14 -4 27
-7 30 -3 3 -13 34 -23 70 -66 243 -191 485 -346 669 -65 77 -226 232 -241 231
-2 0 -29 -22 -59 -48z"/>
<path d="M1147 3462 c-37 -93 -72 -246 -84 -367 -12 -124 -5 -377 11 -427 3
-7 7 -29 10 -48 16 -112 104 -376 160 -480 78 -145 100 -180 173 -280 134
-182 310 -345 498 -460 72 -45 267 -140 274 -135 2 2 -18 30 -44 61 -122 150
-239 359 -313 559 -42 111 -95 310 -107 398 -4 27 -8 57 -10 66 -23 118 -22
438 1 591 10 62 55 271 64 295 8 22 4 27 -48 58 -151 91 -307 154 -467 188
-49 10 -93 19 -96 19 -4 0 -14 -17 -22 -38z"/>
<path d="M3846 3479 c-95 -20 -174 -46 -271 -88 -74 -32 -192 -95 -222 -119
-21 -16 -22 -19 -8 -58 7 -23 23 -86 34 -140 17 -88 25 -137 37 -239 6 -51 6
-337 0 -395 -8 -75 -16 -132 -21 -150 -2 -8 -7 -33 -10 -55 -3 -22 -12 -67
-20 -100 -9 -33 -17 -67 -19 -76 -3 -9 -21 -66 -40 -125 -68 -205 -207 -458
-336 -613 l-51 -61 53 21 c293 114 592 365 788 659 124 188 243 477 274 665
23 140 28 184 30 280 5 188 -24 386 -82 555 -10 30 -25 56 -33 57 -8 1 -54 -7
-103 -18z"/>
<path d="M837 2404 c-1 -1 -36 -5 -77 -8 -94 -8 -105 -10 -215 -42 -49 -14
-100 -28 -112 -31 -17 -4 -20 -9 -14 -22 5 -9 12 -38 16 -66 4 -27 21 -90 37
-140 124 -369 411 -689 785 -874 240 -118 457 -170 711 -169 187 1 190 3 74
53 -159 69 -291 148 -432 260 -79 63 -220 202 -275 270 -22 27 -48 59 -58 70
-30 34 -142 205 -184 285 -51 94 -86 176 -133 310 l-37 105 -42 0 c-23 0 -43
0 -44 -1z"/>
<path d="M4203 2401 c-6 -3 -24 -46 -41 -96 -38 -113 -88 -229 -137 -320 -35
-65 -172 -273 -199 -301 -6 -6 -27 -31 -46 -55 -161 -200 -447 -414 -700 -523
-95 -41 -99 -44 -68 -49 18 -3 93 -5 167 -4 140 1 205 9 396 53 6 1 51 17 100
34 361 129 681 391 860 705 23 41 46 71 50 67 5 -4 5 -2 1 5 -4 7 -3 20 2 30
40 77 90 232 106 325 6 33 4 38 -21 51 -30 15 -175 55 -220 62 -16 2 -49 6
-74 10 -70 10 -166 13 -176 6z"/>
</g>
</svg>
